HIERARCHY
ROOT root
{
	OFFSET 0.000000 0.000000 0.000000
	CHANNELS 6 Xposition Yposition Zposition Zrotation Yrotation Xrotation
	JOINT lhip
	{
		OFFSET 0.058581 -0.082280 -0.017664
		CHANNELS 3 Zrotation Yrotation Xrotation
		JOINT lknee
		{
			OFFSET 0.043451 -0.386469 0.008037
			CHANNELS 3 Zrotation Yrotation Xrotation
			JOINT lankle
			{
				OFFSET -0.014790 -0.426874 -0.037428
				CHANNELS 3 Zrotation Yrotation Xrotation
				JOINT ltoe
				{
					OFFSET 0.041054 -0.060286 0.122042
					CHANNELS 3 Zrotation Yrotation Xrotation
					End Site
					{
						OFFSET 0.000000 0.000000 0.000000
					}
				}
			}
		}
	}
	JOINT rhip
	{
		OFFSET -0.060310 -0.090513 -0.013543
		CHANNELS 3 Zrotation Yrotation Xrotation
		JOINT rknee
		{
			OFFSET -0.043257 -0.383688 -0.004843
			CHANNELS 3 Zrotation Yrotation Xrotation
			JOINT rankle
			{
				OFFSET 0.019056 -0.420046 -0.034562
				CHANNELS 3 Zrotation Yrotation Xrotation
				JOINT rtoe
				{
					OFFSET -0.034840 -0.062106 0.130323
					CHANNELS 3 Zrotation Yrotation Xrotation
					End Site
					{
						OFFSET 0.000000 0.000000 0.000000
					}
				}
			}
		}
	}
	JOINT lowerback
	{
		OFFSET 0.004439 0.124404 -0.038385
		CHANNELS 3 Zrotation Yrotation Xrotation
		JOINT upperback
		{
			OFFSET 0.004488 0.137956 0.026820
			CHANNELS 3 Zrotation Yrotation Xrotation
			JOINT chest
			{
				OFFSET -0.002265 0.056032 0.002855
				CHANNELS 3 Zrotation Yrotation Xrotation
				JOINT lowerneck
				{
					OFFSET -0.013390 0.211636 -0.033468
					CHANNELS 3 Zrotation Yrotation Xrotation
					JOINT upperneck
					{
						OFFSET 0.010113 0.088937 0.050410
						CHANNELS 3 Zrotation Yrotation Xrotation
						End Site
						{
							OFFSET 0.000000 0.000000 0.000000
						}
					}
				}
				JOINT lclavicle
				{
					OFFSET 0.071702 0.114000 -0.018898
					CHANNELS 3 Zrotation Yrotation Xrotation
					JOINT lshoulder
					{
						OFFSET 0.122921 0.045205 -0.019046
						CHANNELS 3 Zrotation Yrotation Xrotation
						JOINT lelbow
						{
							OFFSET 0.255332 -0.015649 -0.022946
							CHANNELS 3 Zrotation Yrotation Xrotation
							JOINT lwrist
							{
								OFFSET 0.265709 0.012698 -0.007375
								CHANNELS 3 Zrotation Yrotation Xrotation
								End Site
								{
									OFFSET 0.000000 0.000000 0.000000
								}
							}
						}
					}
				}
				JOINT rclavicle
				{
					OFFSET -0.082954 0.112472 -0.023707
					CHANNELS 3 Zrotation Yrotation Xrotation
					JOINT rshoulder
					{
						OFFSET -0.113228 0.046853 -0.008472
						CHANNELS 3 Zrotation Yrotation Xrotation
						JOINT relbow
						{
							OFFSET -0.260127 -0.014369 -0.031269
							CHANNELS 3 Zrotation Yrotation Xrotation
							JOINT rwrist
							{
								OFFSET -0.269108 0.006794 -0.006027
								CHANNELS 3 Zrotation Yrotation Xrotation
								End Site
								{
									OFFSET 0.000000 0.000000 0.000000
								}
							}
						}
					}
				}
			}
		}
	}
}
MOTION
Frames: 11
Frame Time: 0.033333
0.014622 0.258099 0.993306 86.783694 -1.244383 88.394039 2.154371 -1.260927 -10.945803 -5.524738 -5.207753 25.840875 5.843352 12.148662 -13.105405 0.000000 -0.000000 0.000000 -7.710964 -0.779327 -12.083397 1.503541 7.179391 24.560927 3.016035 -8.464226 -9.691421 0.000000 -0.000000 0.000000 -0.383996 2.018799 9.462936 6.356557 -4.469353 7.874229 0.987328 3.813443 -5.731765 -4.698745 -10.775613 0.368098 3.502199 2.834154 3.446793 -22.361739 -5.231022 9.544361 -12.847329 8.809885 27.609725 -114.331331 -55.757723 121.419937 -10.397993 -32.291731 -27.450769 27.531087 3.552870 -5.056484 3.312428 6.361123 -19.925151 -66.882095 45.577926 -48.996923 4.425689 -1.018443 48.902882 
0.012081 0.257488 0.994265 86.898369 -1.457809 88.691733 1.925892 -1.215864 -11.358010 -5.361764 -5.167993 25.617294 5.738039 11.951955 -12.904456 0.000000 -0.000000 0.000000 -7.899024 -0.847711 -12.500512 1.457403 7.077663 24.468066 3.020310 -8.312134 -9.538865 0.000000 -0.000000 0.000000 0.301692 1.714430 10.142058 6.701910 -4.526751 7.490826 1.268602 3.815678 -5.701146 -4.641144 -10.872667 -0.227768 3.259477 3.061354 2.654971 -22.394676 -5.263087 9.609478 -13.503811 9.227795 27.515948 -113.381838 -55.827048 121.343821 -10.380041 -32.196988 -27.389063 27.210234 3.547766 -5.241327 2.948292 6.228093 -20.384838 -67.475134 45.727112 -49.599518 4.709485 -1.004352 48.644109 
0.009266 0.256505 0.995008 86.831875 -1.602748 88.915914 1.807957 -1.250750 -11.722990 -5.221117 -5.047639 25.470784 5.685663 11.920202 -12.674693 0.000000 -0.000000 0.000000 -7.989681 -0.838980 -12.973081 1.524865 7.118980 24.535211 3.010967 -8.242967 -9.431527 0.000000 -0.000000 0.000000 0.997732 1.469623 11.110000 6.992021 -4.472679 6.918982 1.495650 3.756772 -5.374848 -4.356124 -10.851193 -1.075465 2.920126 3.383446 1.599081 -21.974445 -5.018824 9.481532 -14.423904 9.480740 27.343579 -112.656977 -55.825609 121.481489 -10.208957 -31.755317 -27.514633 26.666943 3.231706 -5.603759 2.855690 6.553215 -20.741651 -67.750130 45.890258 -49.830144 4.626189 -1.245392 48.346339 
0.006182 0.255316 0.995757 86.818189 -1.778602 89.125114 1.668884 -1.247888 -12.171613 -5.117240 -4.969770 25.472078 5.601015 11.874338 -12.473802 0.000000 -0.000000 0.000000 -8.114890 -0.840344 -13.475135 1.594635 7.101919 24.629235 2.964165 -8.201537 -9.289157 0.000000 -0.000000 0.000000 1.538713 1.220545 12.305368 7.224096 -4.359339 6.320149 1.829152 3.657200 -5.004803 -4.104274 -10.860571 -1.800852 2.384931 3.680837 -0.018514 -21.740285 -4.765800 9.369250 -15.165813 10.075028 27.204770 -112.433158 -55.964277 121.907060 -10.041426 -31.583382 -27.485701 26.039961 3.036938 -5.881948 2.703622 6.552018 -21.033220 -67.955224 45.898261 -50.010631 4.639209 -1.328648 47.869040 
0.003094 0.253802 0.996339 86.515941 -2.075877 89.466710 1.564722 -1.273772 -12.570387 -5.131996 -4.573763 25.135824 5.548721 11.850396 -12.132273 0.000000 -0.000000 0.000000 -8.285296 -0.772382 -14.300593 1.664834 7.230008 24.921937 2.965340 -8.120658 -9.136568 0.000000 -0.000000 0.000000 1.857613 1.089397 13.544475 7.300295 -4.143718 5.905920 2.052411 3.602201 -4.830647 -3.726790 -10.626193 -2.880184 2.133926 3.918545 -1.409353 -21.538913 -4.374091 9.122376 -15.618781 10.755997 27.215221 -112.474710 -56.016849 122.440256 -9.805453 -31.301729 -27.449696 25.616795 2.723897 -6.077146 2.469961 6.550473 -21.305529 -68.050364 45.981779 -50.151617 4.839672 -1.267791 47.328431 
-0.000459 0.252112 0.996819 86.370089 -2.327475 90.052193 1.508688 -1.319499 -13.493030 -5.184879 -4.214281 25.176424 5.479697 11.828631 -11.788544 0.000000 -0.000000 0.000000 -8.350514 -0.776644 -15.538141 1.751760 7.380228 25.538579 2.913518 -8.186291 -9.156983 0.000000 -0.000000 0.000000 2.212111 0.916147 14.623379 7.200144 -4.030909 5.455224 2.144684 3.510335 -4.584874 -3.392198 -10.435787 -4.276247 1.984586 4.176511 -2.703530 -21.423930 -4.252127 9.013722 -15.825143 11.609206 27.190293 -112.621632 -56.007574 122.840240 -9.346297 -31.243964 -27.666069 25.199199 2.507449 -6.252236 2.400458 6.225192 -21.568849 -67.994260 46.184502 -50.148535 4.757360 -1.235995 46.993263 
-0.004297 0.250036 0.997119 86.174976 -2.542381 90.719072 1.618030 -1.347638 -14.581183 -5.395252 -3.792718 25.315827 5.403189 11.763092 -11.443406 0.000000 -0.000000 0.000000 -8.396345 -0.694348 -16.924416 1.813526 7.280545 26.226196 2.799454 -8.152241 -9.133519 0.000000 -0.000000 0.000000 2.431218 0.715787 15.898773 6.963118 -3.819763 4.898016 2.155451 3.454141 -4.483729 -3.100057 -9.892700 -5.789944 1.803264 4.195365 -4.206515 -21.222002 -3.910495 8.680361 -15.761848 12.353512 27.342511 -113.069841 -56.007962 123.215903 -8.708654 -31.303004 -27.635495 24.827630 2.231991 -6.321737 2.515020 5.767150 -21.586412 -67.746253 46.230500 -50.408423 4.372765 -0.872330 46.320639 
-0.008013 0.248019 0.996943 85.998728 -2.655293 91.157858 1.785491 -1.315269 -15.594408 -5.639112 -3.550277 25.823684 5.296322 11.787121 -11.409650 0.000000 -0.000000 0.000000 -8.372241 -0.597671 -18.183076 2.069979 7.253015 27.172187 2.602630 -8.242906 -9.287662 0.000000 -0.000000 0.000000 2.573940 0.558747 17.402670 6.626017 -3.571851 4.402029 2.153533 3.447519 -4.300720 -2.943748 -9.424642 -7.231473 1.637634 4.200681 -5.803563 -21.275748 -3.793437 8.432716 -15.355341 13.141486 27.329975 -114.075036 -56.090288 124.158172 -9.328321 -31.370187 -27.251248 24.609129 2.130634 -6.335246 2.272093 4.833009 -21.730664 -67.182163 46.399585 -50.318490 4.775714 -0.735173 46.206700 
-0.011537 0.246038 0.995851 85.874103 -2.658824 91.486890 2.055615 -1.227544 -16.568753 -5.909425 -3.390530 26.491950 5.261746 11.783347 -11.394167 0.000000 -0.000000 0.000000 -8.245730 -0.529320 -19.349553 2.358967 7.285077 28.201781 2.335782 -8.341595 -9.516141 0.000000 -0.000000 0.000000 2.549865 0.490041 18.770238 6.295610 -3.320283 4.187649 2.136125 3.404092 -4.031569 -2.743322 -8.874769 -8.821990 1.583022 4.030390 -7.223060 -21.060515 -3.739861 8.193517 -15.128485 13.520131 27.393008 -114.978219 -56.091931 124.794679 -8.781937 -31.195274 -27.137838 24.341426 1.961636 -6.439339 2.429861 4.057528 -21.712099 -66.743291 46.599541 -50.507234 4.260450 -0.691430 45.650804 
-0.014619 0.244021 0.994288 86.083523 -2.582188 91.735094 2.320123 -1.164275 -17.644121 -6.169970 -3.546088 27.473280 5.117464 11.844711 -11.505058 0.000000 -0.000000 0.000000 -8.049347 -0.471724 -20.372883 2.634423 7.190536 29.297447 2.059724 -8.565908 -9.893227 0.000000 -0.000000 0.000000 2.462906 0.368128 19.852942 5.989107 -3.230255 4.354341 2.088021 3.267591 -3.931340 -2.639245 -8.303734 -10.132425 1.529863 4.130686 -8.405362 -20.991679 -3.874645 8.141718 -14.966511 13.856995 27.290210 -115.663153 -56.185692 125.478605 -8.827126 -31.074832 -26.964657 23.975920 1.940719 -6.432161 2.698131 3.417484 -21.744323 -66.273906 46.409586 -50.592760 3.982577 -0.664196 44.493788 
-0.017743 0.242201 0.992467 86.540450 -2.376760 92.107171 2.728827 -1.222890 -18.988496 -6.437735 -3.721620 28.602746 5.033568 11.827175 -11.708760 0.000000 -0.000000 0.000000 -7.720686 -0.472541 -21.452555 2.791411 6.916050 30.335996 1.720981 -8.873522 -10.182551 0.000000 -0.000000 0.000000 2.413071 0.174700 20.882086 5.659389 -3.206063 4.027211 2.054711 3.115072 -3.684464 -2.604239 -7.737241 -11.150160 1.520666 4.192456 -9.307441 -21.007520 -4.013137 7.984378 -14.787064 14.132074 27.297989 -116.133100 -56.217440 125.616473 -9.660559 -31.185282 -26.501215 23.756791 1.880529 -6.407723 2.952479 2.638926 -21.612416 -65.781365 46.664691 -50.456249 4.589743 -1.045055 44.295006 
